<svg width="24" height="24" viewBox="0 0 24 24" fill="none" xmlns="http://www.w3.org/2000/svg">
<path d="M10.7832 13.8486C10.7832 13.1833 10.8584 12.6592 11.0088 12.2764C11.1592 11.889 11.403 11.554 11.7402 11.2715C12.0775 10.9889 12.3327 10.7314 12.5059 10.499C12.6836 10.262 12.7725 10.0023 12.7725 9.71973C12.7725 9.03158 12.4762 8.6875 11.8838 8.6875C11.6104 8.6875 11.3893 8.78776 11.2207 8.98828C11.0521 9.1888 10.9632 9.45996 10.9541 9.80176H8.64355C8.65267 8.8903 8.93978 8.18164 9.50488 7.67578C10.07 7.16536 10.863 6.91016 11.8838 6.91016C12.9001 6.91016 13.6862 7.14486 14.2422 7.61426C14.8027 8.08366 15.083 8.7513 15.083 9.61719C15.083 9.99544 15.0078 10.3395 14.8574 10.6494C14.707 10.9593 14.4655 11.276 14.1328 11.5996L13.3467 12.3311C13.1234 12.5452 12.9684 12.7663 12.8818 12.9941C12.7952 13.2174 12.7474 13.5023 12.7383 13.8486H10.7832ZM10.5029 15.9268C10.5029 15.5895 10.6237 15.3138 10.8652 15.0996C11.1113 14.8809 11.4167 14.7715 11.7812 14.7715C12.1458 14.7715 12.4489 14.8809 12.6904 15.0996C12.9365 15.3138 13.0596 15.5895 13.0596 15.9268C13.0596 16.264 12.9365 16.542 12.6904 16.7607C12.4489 16.9749 12.1458 17.082 11.7812 17.082C11.4167 17.082 11.1113 16.9749 10.8652 16.7607C10.6237 16.542 10.5029 16.264 10.5029 15.9268Z" fill="#224976"/>
<path d="M10 20.777C5.99202 19.8675 3 16.2832 3 12C3 7.02944 7.02944 3 12 3C16.9706 3 21 7.02944 21 12C21 16.2832 18.008 19.8675 14 20.777" stroke="#224976" stroke-width="2" stroke-linecap="round"/>
</svg>
