<svg width="24" height="24" viewBox="0 0 24 24" fill="none" xmlns="http://www.w3.org/2000/svg">
<circle cx="12" cy="12" r="11" stroke="#1A4576" stroke-width="2"/>
<path d="M15.6272 9.30396C15.6272 9.86929 15.4886 10.344 15.2112 10.728C14.9339 11.1013 14.4966 11.4373 13.8992 11.736C13.3979 11.992 13.0672 12.2106 12.9072 12.392C12.7579 12.5733 12.6619 12.744 12.6192 12.904C12.5766 13.0533 12.5552 13.2293 12.5552 13.432V13.896H10.6672V13.256C10.6672 12.296 10.9552 11.6133 11.5312 11.208C11.7339 11.0586 12.0326 10.8826 12.4272 10.68C12.8219 10.4773 13.1046 10.2746 13.2752 10.072C13.4566 9.85863 13.5472 9.59196 13.5472 9.27196C13.5472 8.94129 13.4139 8.66929 13.1472 8.45596C12.8806 8.23196 12.4859 8.11996 11.9632 8.11996C11.4406 8.11996 11.0299 8.24796 10.7312 8.50396C10.4326 8.74929 10.2619 9.07463 10.2192 9.47996H8.25122C8.30455 8.55196 8.64589 7.81063 9.27522 7.25596C9.90455 6.69063 10.7846 6.40796 11.9152 6.40796C13.0566 6.40796 13.9579 6.68529 14.6192 7.23996C15.2912 7.79463 15.6272 8.48263 15.6272 9.30396ZM10.3472 15.96C10.3472 15.5973 10.4646 15.2986 10.6992 15.064C10.9446 14.8293 11.2592 14.712 11.6432 14.712C12.0379 14.712 12.3632 14.8293 12.6192 15.064C12.8752 15.2986 13.0032 15.5973 13.0032 15.96C13.0032 16.3226 12.8752 16.6266 12.6192 16.872C12.3632 17.1066 12.0379 17.224 11.6432 17.224C11.2592 17.224 10.9446 17.1066 10.6992 16.872C10.4646 16.6266 10.3472 16.3226 10.3472 15.96Z" fill="#1A4576"/>
</svg>
